<?xml version="1.0" standalone="no"?>
<!DOCTYPE svg PUBLIC "-//W3C//DTD SVG 1.1//EN"
"http://www.w3.org/Graphics/SVG/1.1/DTD/svg11.dtd">
<!-- Creator: fig2dev Version 3.2 Patchlevel 5d -->
<!-- CreationDate: Mon Feb 24 08:59:28 2014 -->
<!-- Magnification: 1.050 -->
<svg	xmlns="http://www.w3.org/2000/svg"
	xmlns:xlink="http://www.w3.org/1999/xlink"
	width="4.8in" height="6.4in"
	viewBox="2800 910 5738 7628">
<g style="stroke-width:.025in; fill:none">
<!-- Line -->
<polyline points="3779,3070
3780,3070
3784,3069
3790,3068
3799,3067
3811,3065
3826,3063
3844,3061
3864,3060
3885,3059
3908,3059
3933,3060
3960,3063
3988,3068
4017,3076
4050,3085
4085,3099
4121,3117
4162,3139
4204,3165
4239,3189
4272,3215
4303,3240
4328,3265
4350,3287
4368,3307
4382,3324
4392,3341
4400,3355
4405,3369
4409,3381
4413,3394
4416,3405
4420,3418
4427,3432
4434,3446
4445,3463
4459,3482
4477,3503
4499,3527
4527,3553
4558,3581
4593,3609
4629,3637
4670,3666
4708,3691
4743,3711
4772,3727
4796,3737
4815,3743
4830,3746
4841,3746
4850,3744
4856,3740
4861,3736
4868,3731
4874,3728
4882,3724
4894,3724
4909,3727
4929,3733
4954,3743
4984,3757
5020,3776
5060,3800
5102,3826
5141,3853
5177,3878
5211,3902
5240,3923
5265,3941
5285,3954
5300,3965
5313,3973
5321,3979
5329,3983
5334,3986
5338,3988
5342,3990
5348,3994
5355,4000
5363,4008
5376,4019
5392,4036
5412,4057
5436,4085
5465,4117
5499,4157
5535,4202
5574,4251
5608,4296
5640,4341
5671,4384
5698,4424
5723,4460
5745,4493
5764,4523
5781,4549
5795,4572
5806,4592
5817,4608
5826,4624
5835,4639
5842,4654
5849,4667
5857,4682
5865,4698
5875,4714
5885,4734
5897,4758
5910,4783
5926,4813
5943,4846
5962,4882
5983,4922
6004,4965
6026,5011
6047,5055
6073,5113
6095,5166
6112,5210
6123,5245
6132,5272
6136,5292
6138,5306
6137,5315
6136,5320
6133,5324
6130,5329
6127,5333
6124,5339
6123,5349
6123,5361
6124,5378
6127,5399
6131,5424
6136,5453
6141,5480
6150,5526
6153,5554
6155,5567
6154,5568
6152,5565
6150,5560
6148,5558
6146,5561
6145,5573
6145,5591
6145,5609
6146,5622
6148,5631
6150,5636
6152,5639
6154,5643
6155,5647
6153,5652
6150,5660
6141,5669
6139,5671
6137,5672
6135,5673
6134,5674
6134,5675
6135,5676
6136,5677
6139,5677
6142,5678
6148,5678
6153,5678
6160,5678
6167,5678
6177,5678
6186,5678
6197,5678
6207,5677
6219,5677
6230,5677
6242,5676
6255,5676
6267,5676
6279,5675
6290,5675
6302,5674
6312,5674
6322,5673
6330,5673
6338,5672
6344,5672
6348,5672
6351,5671
6349,5671
6344,5670
6337,5670
6325,5670
6311,5670
6292,5669
6270,5669
6244,5669
6214,5669
6179,5669
6139,5669
6095,5669
6047,5669
5992,5669
5934,5669
5875,5669
5814,5669
5752,5669
5692,5669
5631,5669
5573,5669
5516,5669
5461,5669
5408,5669
5357,5669
5308,5669
5260,5669
5215,5669
5172,5669
5130,5669
5089,5669
5048,5669
5009,5669
4971,5669
4933,5669
4894,5669
4855,5669
4816,5669
4776,5669
4735,5669
4693,5669
4650,5669
4605,5669
4558,5669
4509,5669
4458,5669
4406,5669
4351,5669
4295,5669
4237,5669
4177,5669
4117,5669
4056,5669
3995,5669
3937,5669
3880,5669
3826,5669
3777,5669
3733,5669
3693,5669
3658,5669
3629,5669
3604,5669
3583,5669
3566,5669
3553,5670
3545,5670
3540,5670
3537,5670
3538,5670
3540,5671
3545,5671
3551,5671
3560,5671
3570,5672
3581,5672
3592,5672
3605,5672
3617,5673
3631,5673
3645,5673
3658,5674
3671,5674
3685,5674
3697,5674
3709,5674
3720,5674
3731,5675
3741,5675
3750,5675
3758,5674
3764,5674
3770,5674
3774,5674
3778,5673
3780,5673
3781,5672
3781,5671
3780,5670
3779,5669
3774,5660
3774,5653
3775,5649
3777,5645
3779,5635
3779,5622
3779,5609
3779,5606
3779,5610
3779,5612
3779,5604
3779,5574
3779,5570
3779,5565
3779,5561
3779,5556
3779,5553
3779,5551
3779,5549
3779,5548
3779,5547
3779,5548
3779,5550
3779,5552
3779,5555
3779,5560
3779,5565
3779,5571
3779,5577
3779,5585
3779,5592
3779,5601
3779,5609
3779,5617
3779,5626
3779,5635
3779,5645
3779,5653
3779,5661
3779,5670
3779,5678
3779,5686
3779,5692
3779,5697
3779,5702
3779,5706
3779,5708
3779,5709
3779,5708
3779,5704
3779,5699
3779,5693
3779,5683
3779,5672
3779,5657
3779,5639
3779,5619
3779,5595
3779,5569
3779,5539
3779,5505
3779,5468
3779,5428
3779,5385
3779,5331
3779,5274
3779,5214
3779,5154
3779,5095
3779,5036
3779,4978
3779,4921
3779,4866
3779,4813
3779,4763
3779,4713
3779,4667
3779,4623
3779,4580
3779,4539
3779,4499
3779,4460
3779,4423
3779,4387
3779,4350
3779,4314
3779,4279
3779,4243
3779,4206
3779,4169
3779,4131
3779,4091
3779,4050
3779,4008
3779,3963
3779,3917
3779,3868
3779,3819
3779,3766
3779,3712
3779,3656
3779,3600
3779,3542
3779,3483
3779,3424
3779,3367
3779,3312
3779,3259
3779,3215
3779,3174
3779,3138
3779,3104
3779,3076
3779,3050
3779,3029
3779,3012
3779,2997
3779,2985
3779,2977
3779,2972
3779,2969
3779,2967
3779,2969
3779,2972
3779,2977
3779,2983
3779,2990
3779,2998
3779,3007
3779,3018
3779,3028
3779,3039
3779,3050
3779,3061
3779,3072
3779,3084
3779,3095
3779,3105
3779,3116
3779,3125
3779,3134
3779,3143
3779,3150
3779,3156
3779,3163
3779,3167
3779,3171
3779,3173
3779,3175
3779,3176
3779,3175
3779,3174
3779,3173
3779,3170
3779,3168
3779,3165
3779,3145
3779,3132
3779,3125
3779,3120
3779,3118
" style="stroke:#000000;stroke-width:16;
stroke-linejoin:bevel; stroke-linecap:butt;
fill:#f2f2f2;
"/>
<!-- Arc -->
<path style="stroke:#000000;stroke-width:32;stroke-linecap:butt;"
d="M 3307,1889 A 579 579  0  1  0  4204  1889 " />
<!-- Arrowhead on XXXpoint 4332 2311 - 4204 1889-->
<polygon points="4424 2288
4224 1954
4243 2343
4424 2288

" style="stroke:#000000;stroke-width:32;stroke-miterlimit:8;
fill:#000000;"/>
<!-- Arc -->
<path style="stroke:#000000;stroke-width:16;stroke-linecap:butt;"
d="M 3779,3874 A 897 897  0  0  1  4535  4251 " />
<!-- Arrowhead on XXXpoint 4337 4049 - 4535 4251-->
<polygon points="4289 4091
4511 4227
4379 4003
4289 4091

" style="stroke:#000000;stroke-width:16;stroke-miterlimit:8;
fill:#000000;"/>
<!-- Arrowhead on XXXpoint 4060 3911 - 3779 3874-->
<polygon points="4070 3848
3813 3878
4053 3973
4070 3848

" style="stroke:#000000;stroke-width:16;stroke-miterlimit:8;
fill:#000000;"/>
<!-- Line -->
<polyline points="3779,8503
3779,1321
" style="stroke:#000000;stroke-width:32;
stroke-linejoin:miter; stroke-linecap:butt;
"/>
<!-- Arrowhead on XXXpoint 3779 8503 - 3779 897-->
<polygon points="3874 1343
3779 965
3685 1343
3874 1343

" style="stroke:#000000;stroke-width:32;stroke-miterlimit:8;
fill:#000000;"/>
<!-- Line -->
<polyline points="2834,5669
8125,5669
" style="stroke:#000000;stroke-width:32;
stroke-linejoin:miter; stroke-linecap:butt;
"/>
<!-- Arrowhead on XXXpoint 2834 5669 - 8551 5669-->
<polygon points="8104 5763
8482 5669
8104 5574
8104 5763

" style="stroke:#000000;stroke-width:32;stroke-miterlimit:8;
fill:#000000;"/>
<!-- Line -->
<polyline points="3779,5669
4743,3950
" style="stroke:#000000;stroke-width:16;
stroke-linejoin:miter; stroke-linecap:butt;
"/>
<!-- Arrowhead on XXXpoint 3779 5669 - 4880 3703-->
<polygon points="4795 3983
4864 3733
4685 3922
4795 3983

" style="stroke:#000000;stroke-width:16;stroke-miterlimit:8;
fill:#000000;"/>
<!-- Line -->
<polyline points="3779,8267
3780,8267
3784,8268
3790,8269
3799,8270
3811,8272
3826,8275
3844,8277
3864,8278
3885,8279
3908,8279
3933,8278
3960,8275
3988,8269
4017,8262
4050,8253
4085,8239
4121,8221
4162,8199
4204,8173
4239,8149
4272,8122
4303,8097
4328,8073
4350,8051
4368,8031
4382,8013
4392,7996
4400,7983
4405,7969
4409,7956
4413,7944
4416,7932
4420,7920
4427,7906
4434,7891
4445,7875
4459,7856
4477,7835
4499,7811
4527,7784
4558,7757
4593,7729
4629,7700
4670,7672
4708,7647
4743,7627
4772,7611
4796,7601
4815,7594
4830,7591
4841,7591
4850,7593
4856,7597
4861,7602
4868,7607
4874,7610
4882,7613
4894,7613
4909,7611
4929,7605
4954,7594
4984,7581
5020,7562
5060,7538
5102,7511
5141,7485
5177,7460
5211,7436
5240,7415
5265,7397
5285,7383
5300,7373
5313,7364
5321,7359
5329,7355
5334,7352
5338,7350
5342,7348
5348,7343
5355,7338
5363,7330
5376,7318
5392,7301
5412,7280
5436,7253
5465,7220
5499,7181
5535,7135
5574,7086
5608,7042
5640,6997
5671,6954
5698,6914
5723,6877
5745,6845
5764,6814
5781,6789
5795,6766
5806,6746
5817,6729
5826,6713
5835,6699
5842,6684
5849,6670
5857,6656
5865,6640
5875,6623
5885,6603
5897,6580
5910,6555
5926,6524
5943,6492
5962,6455
5983,6415
6004,6372
6026,6327
6047,6283
6073,6224
6095,6172
6112,6128
6123,6093
6132,6067
6136,6047
6138,6033
6138,6025
6136,6018
6133,6014
6130,6011
6128,6007
6124,6001
6123,5992
6123,5980
6124,5962
6128,5941
6131,5914
6136,5886
6141,5858
6149,5809
6153,5778
6154,5762
6153,5758
6151,5760
6149,5762
6146,5762
6145,5756
6144,5742
6144,5723
6144,5707
6145,5695
6146,5689
6149,5686
6151,5685
6153,5685
6154,5683
6153,5680
6149,5675
6141,5669
6139,5668
6137,5667
6135,5666
6134,5665
6135,5664
6136,5664
6139,5662
6142,5662
6148,5662
6154,5662
6160,5662
6169,5662
6177,5662
6186,5662
6197,5662
6207,5662
6219,5662
6230,5664
6243,5664
6255,5664
6267,5664
6279,5665
6290,5665
6302,5665
6312,5666
6322,5666
6330,5666
6338,5667
6344,5667
6348,5667
6351,5667
6351,5668
6349,5668
6344,5668
6337,5668
6325,5668
6311,5669
6292,5669
6270,5669
6244,5669
6214,5669
6179,5669
6139,5669
6095,5669
6047,5669
5992,5669
5934,5669
5875,5669
5814,5669
5752,5669
5692,5669
5631,5669
5573,5669
5516,5669
5461,5669
5408,5669
5357,5669
5308,5669
5260,5669
5215,5669
5172,5669
5130,5669
5089,5669
5048,5669
5009,5669
4971,5669
4933,5669
4894,5669
4855,5669
4816,5669
4776,5669
4735,5669
4693,5669
4650,5669
4605,5669
4558,5669
4509,5669
4458,5669
4406,5669
4351,5669
4295,5669
4237,5669
4177,5669
4117,5669
4056,5669
3995,5669
3937,5669
3880,5669
3826,5669
3777,5669
3733,5669
3693,5669
3658,5669
3629,5669
3604,5669
3583,5669
3566,5669
3553,5668
3545,5668
3540,5668
3537,5668
3538,5668
3540,5667
3545,5667
3551,5667
3560,5667
3570,5666
3581,5666
3592,5666
3605,5666
3617,5665
3631,5665
3645,5665
3658,5664
3671,5664
3685,5664
3697,5664
3709,5664
3720,5664
3731,5662
3741,5662
3750,5662
3758,5664
3764,5664
3770,5664
3774,5664
3778,5665
3780,5665
3781,5666
3781,5667
3780,5668
3779,5669
3774,5677
3774,5685
3775,5689
3777,5693
3779,5702
3779,5716
3779,5729
3779,5732
3779,5728
3779,5725
3779,5734
3779,5763
3779,5767
3779,5773
3779,5777
3779,5781
3779,5784
3779,5786
3779,5788
3779,5790
3779,5791
3779,5790
3779,5787
3779,5785
3779,5782
3779,5778
3779,5773
3779,5766
3779,5760
3779,5753
3779,5745
3779,5737
3779,5729
3779,5720
3779,5712
3779,5702
3779,5693
3779,5685
3779,5676
3779,5668
3779,5659
3779,5652
3779,5646
3779,5640
3779,5635
3779,5632
3779,5630
3779,5629
3779,5630
3779,5633
3779,5638
3779,5645
3779,5654
3779,5666
3779,5680
3779,5698
3779,5718
3779,5742
3779,5769
3779,5799
3779,5833
3779,5869
3779,5909
3779,5952
3779,6007
3779,6064
3779,6123
3779,6183
3779,6243
3779,6302
3779,6360
3779,6416
3779,6472
3779,6524
3779,6575
3779,6624
3779,6670
3779,6714
3779,6758
3779,6798
3779,6838
3779,6877
3779,6915
3779,6951
3779,6987
3779,7023
3779,7059
3779,7095
3779,7131
3779,7169
3779,7207
3779,7247
3779,7288
3779,7330
3779,7375
3779,7421
3779,7469
3779,7519
3779,7571
3779,7626
3779,7681
3779,7738
3779,7796
3779,7855
3779,7913
3779,7970
3779,8026
3779,8078
3779,8122
3779,8163
3779,8200
3779,8234
3779,8262
3779,8287
3779,8308
3779,8326
3779,8341
3779,8352
3779,8361
3779,8366
3779,8369
3779,8370
3779,8369
3779,8366
3779,8361
3779,8354
3779,8348
3779,8340
3779,8330
3779,8320
3779,8309
3779,8299
3779,8287
3779,8277
3779,8265
3779,8254
3779,8243
3779,8233
3779,8222
3779,8213
3779,8203
3779,8195
3779,8187
3779,8181
3779,8175
3779,8171
3779,8166
3779,8164
3779,8162
3779,8161
3779,8162
3779,8163
3779,8164
3779,8167
3779,8170
3779,8173
3779,8193
3779,8205
3779,8213
3779,8218
3779,8220
" style="stroke:#000000;stroke-width:16;
stroke-linejoin:bevel; stroke-linecap:butt;
fill:#f2f2f2;
"/>
<!-- Text -->
<text xml:space="preserve" x="8031" y="6188" fill="#000000"  font-family="New Century Schoolbook" font-style="italic" font-weight="bold" font-size="454" text-anchor="start">x</text>
<!-- Text -->
<text xml:space="preserve" x="4015" y="1417" fill="#000000"  font-family="New Century Schoolbook" font-style="italic" font-weight="bold" font-size="454" text-anchor="start">z</text>
<!-- Text -->
<text xml:space="preserve" x="3968" y="4393" fill="#000000"  font-family="Times,Symbol" font-style="normal" font-weight="normal" font-size="353" text-anchor="start">&#952;</text>
<!-- Text -->
<text xml:space="preserve" x="5232" y="3543" fill="#000000"  font-family="New Century Schoolbook" font-style="normal" font-weight="bold" font-size="353" text-anchor="start">(</text>
<!-- Text -->
<text xml:space="preserve" x="5597" y="3543" fill="#000000"  font-family="New Century Schoolbook" font-style="normal" font-weight="bold" font-size="353" text-anchor="start">)</text>
<!-- Text -->
<text xml:space="preserve" x="5385" y="3543" fill="#000000"  font-family="Times,Symbol" font-style="normal" font-weight="normal" font-size="353" text-anchor="start">&#952;</text>
<!-- Text -->
<text xml:space="preserve" x="4913" y="3543" fill="#000000"  font-family="New Century Schoolbook" font-style="italic" font-weight="bold" font-size="353" text-anchor="start">h </text>
</g>
</svg>
